PathFileType	4	(x/y/z)	S01_BK_Cal.trc
DataRate	CameraRate	NumFrames	NumMarkers	Units	OrigDataRate	OrigDataStartFrame	OrigNumFrames
240	240	6	51	mm	240	301	2400
Frame#	Time	Sternum			R.Acromium			L.Acromium			Top.Head			R.ASIS			L.ASIS			R.PSIS			L.PSIS			R.Great.Tro			L.Great.Tro			R.Iliac.Crest			L.Iliac.Crest			V.Sacral			R.Thigh.Upper.Post			R.Thigh.Lower.Ant			R.Thigh.Lower.Post			R.Thigh.Upper.Ant			R.Knee.Lat			R.Knee.Med			R.Shank.Upper.Post			R.Shank.Lower.Ant			R.Shank.Lower.Post			R.Shank.Upper.Ant			R.Ankle.Lat			R.Ankle.Med			R.Heel.Upper			R.Heel.Med			R.Heel.Lat			R.Toe.Lat			R.Toe.Med			R.Toe.Tip			L.Thigh.Upper.Post			L.Thigh.Lower.Ant			L.Thigh.Lower.Post			L.Thigh.Upper.Ant			L.Knee.Lat			L.Knee.Med			L.Shank.Upper.Post			L.Shank.Lower.Ant			L.Shank.Lower.Post			L.Shank.Upper.Ant			L.Ankle.Lat			L.Ankle.Med			L.Heel.Upper			L.Heel.Med			L.Heel.Lat			L.Toe.Lat			L.Toe.Med			L.Toe.Tip			Cervical.Spine			Back			
		X1	Y1	Z1	X2	Y2	Z2	X3	Y3	Z3	X4	Y4	Z4	X5	Y5	Z5	X6	Y6	Z6	X7	Y7	Z7	X8	Y8	Z8	X9	Y9	Z9	X10	Y10	Z10	X11	Y11	Z11	X12	Y12	Z12	X13	Y13	Z13	X14	Y14	Z14	X15	Y15	Z15	X16	Y16	Z16	X17	Y17	Z17	X18	Y18	Z18	X19	Y19	Z19	X20	Y20	Z20	X21	Y21	Z21	X22	Y22	Z22	X23	Y23	Z23	X24	Y24	Z24	X25	Y25	Z25	X26	Y26	Z26	X27	Y27	Z27	X28	Y28	Z28	X29	Y29	Z29	X30	Y30	Z30	X31	Y31	Z31	X32	Y32	Z32	X33	Y33	Z33	X34	Y34	Z34	X35	Y35	Z35	X36	Y36	Z36	X37	Y37	Z37	X38	Y38	Z38	X39	Y39	Z39	X40	Y40	Z40	X41	Y41	Z41	X42	Y42	Z42	X43	Y43	Z43	X44	Y44	Z44	X45	Y45	Z45	X46	Y46	Z46	X47	Y47	Z47	X48	Y48	Z48	X49	Y49	Z49	X50	Y50	Z50	X51	Y51	Z51	

301	1.25	732.68	1269.4	272.67	577.02	1508.6	454.06	546.23	1521	127.99	481.31	1816.1	298.79	703.38	999	426.66	704.58	999.73	157.4	466.76	1032.5	333.95	464.91	1030.1	229.86	628.27	945.53	506.64	599.51	945.06	78.299	610.21	1094.9	490.6	591.03	1081.6	86.077	454.8	993.86	280.19	658.98	641.58	512.38	737.52	577.43	496.53	672.75	553.44	499.18	727.24	667.15	508.14	703.53	489.73	498.89	712.9	480.23	358.81	599.47	363.94	529.39	620.61	262.83	490.18	567.7	300.57	522.27	650.49	328.87	505.19	482.26	113.44	498.11	512.15	106.59	404.49	406.6	81.747	444.31	417.58	48.735	416.73	413.9	53.356	481.31	601.64	34.987	539.39	634.3	40.062	415.05	697.14	51.592	470.99	606.69	657.59	79.534	697.94	597.79	63.173	629.25	569.26	88.664	667.33	688.34	55.026	686.63	490.08	70.924	724.63	486.29	206.73	597.66	381.76	48.111	623.33	275.33	68.715	571.39	308.26	48.542	650.75	347.06	61.924	473.89	113.53	79.093	504.85	118.21	173.95	400.2	83.442	124.13	409.49	54.564	155.54	407.71	58.44	93.72	610.42	37.898	45.198	634.91	45.462	167.58	697.47	55.547	117.69	476.03	1550.5	299.23	431.53	1228.1	308.92
302	1.2542	732.67	1269.4	272.69	577.01	1508.6	454.07	546.23	1521	127.99	481.31	1816.1	298.78	703.36	999	426.67	704.56	999.74	157.41	466.74	1032.5	333.96	464.89	1030.1	229.87	628.25	945.53	506.65	599.49	945.06	78.312	610.19	1094.9	490.61	591.02	1081.6	86.094	454.79	993.86	280.21	658.98	641.58	512.39	737.52	577.43	496.53	672.75	553.44	499.18	727.23	667.15	508.14	703.53	489.73	498.89	712.9	480.24	358.82	599.47	363.94	529.39	620.61	262.83	490.18	567.7	300.57	522.28	650.49	328.87	505.19	482.26	113.44	498.11	512.15	106.6	404.49	406.6	81.749	444.31	417.58	48.737	416.73	413.9	53.358	481.31	601.64	34.987	539.39	634.3	40.062	415.05	697.14	51.592	470.99	606.68	657.59	79.541	697.94	597.79	63.18	629.24	569.27	88.671	667.32	688.34	55.033	686.62	490.08	70.93	724.62	486.29	206.74	597.65	381.77	48.116	623.33	275.33	68.718	571.38	308.26	48.546	650.74	347.07	61.928	473.89	113.53	79.094	504.85	118.21	173.95	400.2	83.442	124.13	409.49	54.562	155.54	407.72	58.44	93.72	610.42	37.897	45.198	634.91	45.462	167.58	697.47	55.547	117.69	476.03	1550.5	299.23	431.52	1228.1	308.93
303	1.2583	732.66	1269.4	272.7	577	1508.6	454.07	546.23	1521	128	481.31	1816.1	298.78	703.35	999	426.68	704.54	999.74	157.43	466.72	1032.5	333.97	464.87	1030.1	229.88	628.24	945.52	506.66	599.48	945.06	78.324	610.17	1094.9	490.62	591.01	1081.6	86.111	454.77	993.86	280.22	658.97	641.58	512.4	737.52	577.43	496.53	672.75	553.44	499.18	727.23	667.15	508.15	703.53	489.73	498.89	712.91	480.24	358.82	599.47	363.94	529.4	620.62	262.83	490.18	567.71	300.57	522.28	650.49	328.87	505.19	482.26	113.44	498.11	512.15	106.6	404.49	406.6	81.751	444.31	417.58	48.738	416.73	413.9	53.36	481.31	601.64	34.988	539.39	634.3	40.062	415.05	697.14	51.591	470.99	606.67	657.59	79.548	697.93	597.8	63.188	629.24	569.27	88.678	667.31	688.34	55.04	686.62	490.09	70.937	724.61	486.3	206.75	597.65	381.77	48.123	623.33	275.33	68.721	571.38	308.27	48.551	650.74	347.07	61.933	473.89	113.53	79.095	504.84	118.21	173.96	400.2	83.442	124.13	409.48	54.56	155.54	407.72	58.44	93.721	610.42	37.897	45.199	634.91	45.462	167.58	697.47	55.547	117.69	476.02	1550.5	299.23	431.52	1228.1	308.94
304	1.2625	732.65	1269.4	272.71	576.99	1508.6	454.07	546.24	1521	128	481.31	1816.1	298.77	703.33	999	426.69	704.52	999.74	157.44	466.7	1032.5	333.98	464.85	1030.1	229.89	628.22	945.52	506.67	599.46	945.05	78.337	610.15	1094.9	490.63	591	1081.6	86.127	454.75	993.85	280.23	658.97	641.57	512.4	737.52	577.43	496.54	672.76	553.43	499.19	727.23	667.15	508.15	703.53	489.73	498.89	712.91	480.24	358.82	599.47	363.94	529.4	620.62	262.83	490.18	567.71	300.57	522.28	650.49	328.87	505.19	482.26	113.44	498.11	512.15	106.6	404.49	406.6	81.753	444.31	417.58	48.74	416.72	413.9	53.361	481.31	601.64	34.988	539.39	634.3	40.062	415.05	697.14	51.591	470.99	606.67	657.59	79.555	697.93	597.8	63.196	629.23	569.26	88.685	667.3	688.35	55.047	686.61	490.09	70.944	724.61	486.3	206.76	597.65	381.77	48.129	623.32	275.34	68.724	571.37	308.27	48.556	650.74	347.07	61.937	473.89	113.53	79.097	504.84	118.21	173.96	400.2	83.442	124.13	409.48	54.559	155.54	407.72	58.439	93.722	610.43	37.896	45.199	634.91	45.462	167.58	697.47	55.547	117.69	476.02	1550.5	299.23	431.51	1228.1	308.96
305	1.2667	732.63	1269.4	272.73	576.99	1508.6	454.08	546.24	1521	128	481.3	1816.1	298.77	703.31	999	426.7	704.51	999.73	157.45	466.68	1032.5	333.99	464.83	1030.1	229.9	628.21	945.52	506.68	599.45	945.05	78.349	610.14	1094.9	490.64	590.99	1081.6	86.144	454.73	993.85	280.24	658.97	641.57	512.41	737.52	577.43	496.54	672.76	553.43	499.19	727.22	667.15	508.16	703.53	489.73	498.9	712.91	480.24	358.82	599.47	363.94	529.4	620.62	262.83	490.18	567.71	300.57	522.28	650.5	328.87	505.19	482.26	113.44	498.11	512.15	106.6	404.49	406.6	81.755	444.31	417.58	48.741	416.72	413.9	53.362	481.31	601.64	34.989	539.39	634.3	40.062	415.05	697.14	51.59	470.99	606.66	657.59	79.562	697.92	597.8	63.205	629.23	569.26	88.693	667.3	688.35	55.055	686.61	490.09	70.951	724.61	486.3	206.77	597.64	381.77	48.136	623.32	275.34	68.728	571.37	308.27	48.562	650.73	347.07	61.943	473.89	113.53	79.099	504.84	118.2	173.96	400.2	83.442	124.13	409.48	54.557	155.54	407.72	58.439	93.723	610.43	37.896	45.199	634.91	45.461	167.58	697.47	55.548	117.69	476.01	1550.5	299.23	431.5	1228.1	308.97
306	1.2708	732.62	1269.4	272.74	576.98	1508.6	454.08	546.24	1521	128	481.3	1816.1	298.77	703.29	998.99	426.71	704.49	999.73	157.46	466.66	1032.5	334.01	464.81	1030.1	229.91	628.19	945.51	506.69	599.43	945.05	78.361	610.12	1094.9	490.65	590.97	1081.6	86.16	454.72	993.84	280.25	658.97	641.57	512.41	737.52	577.43	496.54	672.76	553.43	499.2	727.22	667.15	508.16	703.54	489.73	498.9	712.92	480.24	358.82	599.48	363.94	529.4	620.62	262.83	490.19	567.71	300.57	522.28	650.5	328.87	505.2	482.26	113.44	498.11	512.16	106.6	404.49	406.6	81.756	444.31	417.58	48.743	416.72	413.9	53.363	481.31	601.64	34.989	539.39	634.3	40.062	415.05	697.14	51.589	470.99	606.65	657.59	79.569	697.92	597.8	63.213	629.22	569.26	88.701	667.29	688.35	55.063	686.61	490.09	70.958	724.6	486.3	206.78	597.64	381.77	48.143	623.32	275.34	68.732	571.37	308.27	48.568	650.73	347.07	61.948	473.89	113.53	79.1	504.84	118.2	173.96	400.2	83.441	124.13	409.48	54.555	155.54	407.72	58.438	93.724	610.43	37.896	45.2	634.91	45.461	167.58	697.47	55.548	117.69	476.01	1550.5	299.24	431.5	1228.1	308.98
